<?xml version="1.0" encoding="UTF-8" standalone="no"?>
<!-- Created with Inkscape (http://www.inkscape.org/) -->

<svg
   width="210mm"
   height="297mm"
   viewBox="0 0 210 297"
   version="1.1"
   id="svg7063"
   inkscape:version="1.2 (dc2aeda, 2022-05-15)"
   sodipodi:docname="aardgasvrij-garyp.svg"
   xmlns:inkscape="http://www.inkscape.org/namespaces/inkscape"
   xmlns:sodipodi="http://sodipodi.sourceforge.net/DTD/sodipodi-0.dtd"
   xmlns="http://www.w3.org/2000/svg"
   xmlns:svg="http://www.w3.org/2000/svg">
  <sodipodi:namedview
     id="namedview7065"
     pagecolor="#ffffff"
     bordercolor="#666666"
     borderopacity="1.0"
     inkscape:showpageshadow="2"
     inkscape:pageopacity="0.0"
     inkscape:pagecheckerboard="0"
     inkscape:deskcolor="#d1d1d1"
     inkscape:document-units="mm"
     showgrid="false"
     inkscape:zoom="2"
     inkscape:cx="409"
     inkscape:cy="575.5"
     inkscape:window-width="1441"
     inkscape:window-height="908"
     inkscape:window-x="2717"
     inkscape:window-y="314"
     inkscape:window-maximized="0"
     inkscape:current-layer="layer1" />
  <defs
     id="defs7060">
    <clipPath
       clipPathUnits="userSpaceOnUse"
       id="clipPath91">
      <path
         d="m 982.417,701.574 h 206.942 V 844.015 H 982.417 Z"
         id="path89" />
    </clipPath>
    <clipPath
       clipPathUnits="userSpaceOnUse"
       id="clipPath105">
      <path
         d="m 1003.612,708.763 h 164.551 v 128.064 h -164.551 z"
         id="path103" />
    </clipPath>
    <clipPath
       clipPathUnits="userSpaceOnUse"
       id="clipPath119">
      <path
         d="m 982.417,701.574 h 206.942 V 844.015 H 982.417 Z"
         id="path117" />
    </clipPath>
  </defs>
  <g
     inkscape:label="Laag 1"
     inkscape:groupmode="layer"
     id="layer1">
    <g
       id="g85"
       transform="matrix(0.35277777,0,0,-0.35277777,-277.16158,421.69823)">
      <g
         id="g87"
         clip-path="url(#clipPath91)">
        <path
           d="m 1043.027,778.997 h -17.279 v 28.348 h 17.279 z"
           style="fill:#29358f;fill-opacity:1;fill-rule:nonzero;stroke:none"
           id="path93" />
        <path
           d="m 1083.85,776.438 h -25.615 v 38.421 h 25.615 z"
           style="fill:#afe095;fill-opacity:1;fill-rule:nonzero;stroke:none"
           id="path95" />
        <path
           d="m 1127.952,769.553 h -21.375 v 30.672 h 21.375 z"
           style="fill:#79cd5d;fill-opacity:1;fill-rule:nonzero;stroke:none"
           id="path97" />
      </g>
    </g>
    <g
       id="g99"
       transform="matrix(0.35277777,0,0,-0.35277777,-277.16158,421.69823)">
      <g
         id="g101"
         clip-path="url(#clipPath105)">
        <path
           d="m 1098.287,773.229 h -25.542 v 27.77 h 25.542 z"
           style="fill:#4dbd38;fill-opacity:1;fill-rule:nonzero;stroke:none"
           id="path107" />
        <g
           id="g109"
           transform="translate(1070.3112,783.9712)">
          <path
             d="M 0,0 H 8.887 V 23.374 L 0,23.057 Z M 78.181,-9.304 H 61.943 V 11.842 L 50.997,28.135 39.414,11.833 V -9.304 H 30.109 V 24.015 L 22.077,41.333 13.937,23.554 10.106,23.417 V -1.22 H -1.22 v 25.454 l 10.107,0.36 v 5.144 L -2.535,50.391 -14.654,29.73 V 0.296 h -9.81 V 23.785 L -35.411,39.09 -45.982,23.791 V -9.304 h -20.717 v 1.22 h 19.497 v 32.255 l 11.773,17.04 12.185,-17.034 V 1.516 h 7.37 v 28.545 l 13.37,22.795 12.61,-22.803 v -5.415 l 3.035,0.108 8.929,19.502 9.259,-19.963 V -8.084 h 6.865 V 12.222 L 51.024,30.281 63.163,12.213 V -8.084 h 15.018 z"
             style="fill:#231f20;fill-opacity:1;fill-rule:nonzero;stroke:none"
             id="path111" />
        </g>
      </g>
    </g>
    <g
       id="g113"
       transform="matrix(0.35277777,0,0,-0.35277777,-277.16158,421.69823)">
      <g
         id="g115"
         clip-path="url(#clipPath119)">
        <g
           id="g121"
           transform="translate(1154.8792,779.4288)">
          <path
             d="M 0,0 C 0,0 -7.342,0.953 -7.342,-4.051 -7.342,-9.056 0,-8.341 0,-8.341 v 6.196 z"
             style="fill:#4dbd38;fill-opacity:1;fill-rule:nonzero;stroke:none"
             id="path123" />
        </g>
        <g
           id="g125"
           transform="translate(1153.5028,778.8904)">
          <path
             d="m 0,0 c -1.289,0 -3.237,-0.19 -4.396,-1.209 -0.646,-0.569 -0.96,-1.322 -0.96,-2.304 0,-0.99 0.319,-1.76 0.975,-2.355 1.427,-1.296 4.02,-1.384 5.147,-1.356 v 7.202 C 0.557,-0.01 0.296,0 0,0 m 0.442,-8.45 c -1.422,0 -4.035,0.219 -5.643,1.678 -0.912,0.828 -1.374,1.924 -1.374,3.259 0,1.336 0.463,2.42 1.376,3.222 2.253,1.98 6.474,1.458 6.654,1.434 L 1.986,1.074 V -8.357 L 1.435,-8.41 C 1.385,-8.415 1.007,-8.45 0.442,-8.45"
             style="fill:#231f20;fill-opacity:1;fill-rule:nonzero;stroke:none"
             id="path127" />
        </g>
        <g
           id="g129"
           transform="translate(1159.2643,777.0641)">
          <path
             d="M 0,0 H -4.385"
             style="fill:#94d222;fill-opacity:1;fill-rule:nonzero;stroke:none"
             id="path131" />
        </g>
        <g
           id="g133"
           transform="translate(1159.2643,776.4539)">
          <path
             d="m 0,0 h -4.385 c -0.337,0 -0.61,0.273 -0.61,0.61 0,0.337 0.273,0.61 0.61,0.61 H 0 C 0.337,1.22 0.61,0.947 0.61,0.61 0.61,0.273 0.337,0 0,0"
             style="fill:#231f20;fill-opacity:1;fill-rule:nonzero;stroke:none"
             id="path135" />
        </g>
        <g
           id="g137"
           transform="translate(1159.2643,773.4892)">
          <path
             d="M 0,0 H -4.385"
             style="fill:#94d222;fill-opacity:1;fill-rule:nonzero;stroke:none"
             id="path139" />
        </g>
        <g
           id="g141"
           transform="translate(1159.2643,772.8794)">
          <path
             d="m 0,0 h -4.385 c -0.337,0 -0.61,0.273 -0.61,0.61 0,0.337 0.273,0.61 0.61,0.61 H 0 C 0.337,1.22 0.61,0.947 0.61,0.61 0.61,0.273 0.337,0 0,0"
             style="fill:#231f20;fill-opacity:1;fill-rule:nonzero;stroke:none"
             id="path143" />
        </g>
        <path
           d="m 1155.817,722.735 h -115.512 v 22.617 h 115.512 z"
           style="fill:#79cd5d;fill-opacity:1;fill-rule:nonzero;stroke:none"
           id="path145" />
      </g>
    </g>
    <text
       xml:space="preserve"
       style="font-variant:normal;font-weight:bold;font-stretch:normal;font-size:13.5133px;font-family:Calibri;-inkscape-font-specification:Calibri-Bold;writing-mode:lr-tb;fill:#231f20;fill-opacity:1;fill-rule:nonzero;stroke:none;stroke-width:0.352778"
       id="text149"
       x="91.702362"
       y="166.83876"><tspan
         x="91.702362 99.972519 107.82376 114.83718 121.52628"
         y="166.83876"
         sodipodi:role="line"
         id="tspan147"
         style="stroke-width:0.352778">GARYP</tspan></text>
    <text
       xml:space="preserve"
       style="font-variant:normal;font-weight:normal;font-stretch:normal;font-size:2.20525px;font-family:'Myriad Pro';-inkscape-font-specification:MyriadPro-Regular;writing-mode:lr-tb;fill:#4f4c4d;fill-opacity:1;fill-rule:nonzero;stroke:none;stroke-width:0.352778"
       id="text153"
       x="91.654099"
       y="170.02837"><tspan
         x="91.654099 93.173515 94.39743 95.64119 96.746025 97.46714 98.710899 99.815727 100.92056 101.44099 101.90851 102.96924 104.03217 105.25608 105.72359 106.80857 108.03249 109.13731 109.85844 110.80228 111.33816 112.37683 112.84434 114.03959 115.25027 116.46095 117.71574 118.82056 119.54168 120.60461 121.66754 122.54082 123.0767 124.18153 124.64904 126.07363 127.13215 127.90839 128.94707"
         y="170.02837"
         sodipodi:role="line"
         id="tspan151"
         style="stroke-width:0.352778">Onderdeel van Enerzjy Koöperaasje Garyp</tspan></text>
    <text
       xml:space="preserve"
       style="font-variant:normal;font-weight:normal;font-stretch:normal;font-size:8.82096px;font-family:Calibri;-inkscape-font-specification:Calibri;writing-mode:lr-tb;fill:#231f20;fill-opacity:1;fill-rule:nonzero;stroke:none;stroke-width:0.352778"
       id="text157"
       x="78.445259"
       y="156.57349"><tspan
         x="78.445259 83.570236 88.695213 93.50264 98.945168 104.52884 109.65382 113.72028 118.73941 123.54683 125.78735"
         y="156.57349"
         sodipodi:role="line"
         id="tspan155"
         style="stroke-width:0.352778">AARDGASVRIJ</tspan></text>
  </g>
</svg>
