<?xml version="1.0" encoding="UTF-8" standalone="no"?>
<!-- Created with Inkscape (http://www.inkscape.org/) -->

<svg
   width="1000"
   height="798.74512"
   viewBox="0 0 264.58333 211.33464"
   version="1.1"
   id="svg7063"
   inkscape:version="1.2 (dc2aeda, 2022-05-15)"
   sodipodi:docname="aardgasvrij-garyp-1000x_.svg"
   xmlns:inkscape="http://www.inkscape.org/namespaces/inkscape"
   xmlns:sodipodi="http://sodipodi.sourceforge.net/DTD/sodipodi-0.dtd"
   xmlns="http://www.w3.org/2000/svg"
   xmlns:svg="http://www.w3.org/2000/svg">
  <sodipodi:namedview
     id="namedview7065"
     pagecolor="#ffffff"
     bordercolor="#666666"
     borderopacity="1.0"
     inkscape:showpageshadow="2"
     inkscape:pageopacity="0.0"
     inkscape:pagecheckerboard="true"
     inkscape:deskcolor="#d1d1d1"
     inkscape:document-units="px"
     showgrid="false"
     inkscape:zoom="1"
     inkscape:cx="409"
     inkscape:cy="551"
     inkscape:window-width="1441"
     inkscape:window-height="908"
     inkscape:window-x="2717"
     inkscape:window-y="258"
     inkscape:window-maximized="0"
     inkscape:current-layer="g5441" />
  <defs
     id="defs7060">
    <clipPath
       clipPathUnits="userSpaceOnUse"
       id="clipPath91">
      <path
         d="m 982.417,701.574 h 206.942 V 844.015 H 982.417 Z"
         id="path89" />
    </clipPath>
    <clipPath
       clipPathUnits="userSpaceOnUse"
       id="clipPath105">
      <path
         d="m 1003.612,708.763 h 164.551 v 128.064 h -164.551 z"
         id="path103" />
    </clipPath>
    <clipPath
       clipPathUnits="userSpaceOnUse"
       id="clipPath119">
      <path
         d="m 982.417,701.574 h 206.942 V 844.015 H 982.417 Z"
         id="path117" />
    </clipPath>
  </defs>
  <g
     inkscape:label="Laag 1"
     inkscape:groupmode="layer"
     id="layer1"
     transform="translate(1.9757076e-6,-26.62434)">
    <g
       id="g5441"
       transform="matrix(4.7996284,0,0,4.7996284,-369.0458,-580.45314)">
      <g
         id="g85"
         transform="matrix(0.35277777,0,0,-0.35277777,-277.16158,421.69823)">
        <g
           id="g87"
           clip-path="url(#clipPath91)">
          <path
             d="m 1043.027,778.997 h -17.279 v 28.348 h 17.279 z"
             style="fill:#29358f;fill-opacity:1;fill-rule:nonzero;stroke:none"
             id="path93" />
          <path
             d="m 1083.85,776.438 h -25.615 v 38.421 h 25.615 z"
             style="fill:#afe095;fill-opacity:1;fill-rule:nonzero;stroke:none"
             id="path95" />
          <path
             d="m 1127.952,769.553 h -21.375 v 30.672 h 21.375 z"
             style="fill:#79cd5d;fill-opacity:1;fill-rule:nonzero;stroke:none"
             id="path97" />
        </g>
      </g>
      <g
         id="g99"
         transform="matrix(0.35277777,0,0,-0.35277777,-277.16158,421.69823)">
        <g
           id="g101"
           clip-path="url(#clipPath105)">
          <path
             d="m 1098.287,773.229 h -25.542 v 27.77 h 25.542 z"
             style="fill:#4dbd38;fill-opacity:1;fill-rule:nonzero;stroke:none"
             id="path107" />
          <g
             id="g109"
             transform="translate(1070.3112,783.9712)">
            <path
               d="M 0,0 H 8.887 V 23.374 L 0,23.057 Z M 78.181,-9.304 H 61.943 V 11.842 L 50.997,28.135 39.414,11.833 V -9.304 H 30.109 V 24.015 L 22.077,41.333 13.937,23.554 10.106,23.417 V -1.22 H -1.22 v 25.454 l 10.107,0.36 v 5.144 L -2.535,50.391 -14.654,29.73 V 0.296 h -9.81 V 23.785 L -35.411,39.09 -45.982,23.791 V -9.304 h -20.717 v 1.22 h 19.497 v 32.255 l 11.773,17.04 12.185,-17.034 V 1.516 h 7.37 v 28.545 l 13.37,22.795 12.61,-22.803 v -5.415 l 3.035,0.108 8.929,19.502 9.259,-19.963 V -8.084 h 6.865 V 12.222 L 51.024,30.281 63.163,12.213 V -8.084 h 15.018 z"
               style="fill:#231f20;fill-opacity:1;fill-rule:nonzero;stroke:none"
               id="path111" />
          </g>
        </g>
      </g>
      <g
         id="g113"
         transform="matrix(0.35277777,0,0,-0.35277777,-277.16158,421.69823)">
        <g
           id="g115"
           clip-path="url(#clipPath119)">
          <g
             id="g121"
             transform="translate(1154.8792,779.4288)">
            <path
               d="M 0,0 C 0,0 -7.342,0.953 -7.342,-4.051 -7.342,-9.056 0,-8.341 0,-8.341 v 6.196 z"
               style="fill:#4dbd38;fill-opacity:1;fill-rule:nonzero;stroke:none"
               id="path123" />
          </g>
          <g
             id="g125"
             transform="translate(1153.5028,778.8904)">
            <path
               d="m 0,0 c -1.289,0 -3.237,-0.19 -4.396,-1.209 -0.646,-0.569 -0.96,-1.322 -0.96,-2.304 0,-0.99 0.319,-1.76 0.975,-2.355 1.427,-1.296 4.02,-1.384 5.147,-1.356 v 7.202 C 0.557,-0.01 0.296,0 0,0 m 0.442,-8.45 c -1.422,0 -4.035,0.219 -5.643,1.678 -0.912,0.828 -1.374,1.924 -1.374,3.259 0,1.336 0.463,2.42 1.376,3.222 2.253,1.98 6.474,1.458 6.654,1.434 L 1.986,1.074 V -8.357 L 1.435,-8.41 C 1.385,-8.415 1.007,-8.45 0.442,-8.45"
               style="fill:#231f20;fill-opacity:1;fill-rule:nonzero;stroke:none"
               id="path127" />
          </g>
          <g
             id="g129"
             transform="translate(1159.2643,777.0641)">
            <path
               d="M 0,0 H -4.385"
               style="fill:#94d222;fill-opacity:1;fill-rule:nonzero;stroke:none"
               id="path131" />
          </g>
          <g
             id="g133"
             transform="translate(1159.2643,776.4539)">
            <path
               d="m 0,0 h -4.385 c -0.337,0 -0.61,0.273 -0.61,0.61 0,0.337 0.273,0.61 0.61,0.61 H 0 C 0.337,1.22 0.61,0.947 0.61,0.61 0.61,0.273 0.337,0 0,0"
               style="fill:#231f20;fill-opacity:1;fill-rule:nonzero;stroke:none"
               id="path135" />
          </g>
          <g
             id="g137"
             transform="translate(1159.2643,773.4892)">
            <path
               d="M 0,0 H -4.385"
               style="fill:#94d222;fill-opacity:1;fill-rule:nonzero;stroke:none"
               id="path139" />
          </g>
          <g
             id="g141"
             transform="translate(1159.2643,772.8794)">
            <path
               d="m 0,0 h -4.385 c -0.337,0 -0.61,0.273 -0.61,0.61 0,0.337 0.273,0.61 0.61,0.61 H 0 C 0.337,1.22 0.61,0.947 0.61,0.61 0.61,0.273 0.337,0 0,0"
               style="fill:#231f20;fill-opacity:1;fill-rule:nonzero;stroke:none"
               id="path143" />
          </g>
          <path
             d="m 1155.817,722.735 h -115.512 v 22.617 h 115.512 z"
             style="fill:#79cd5d;fill-opacity:1;fill-rule:nonzero;stroke:none"
             id="path145" />
        </g>
      </g>
      <g
         aria-label="GARYP"
         id="text149"
         style="font-weight:bold;font-size:13.5133px;font-family:Calibri;-inkscape-font-specification:Calibri-Bold;fill:#231f20;stroke-width:0.352778">
        <path
           d="m 99.481747,159.62683 q 0,0.19135 -0.0198,0.32991 -0.0132,0.13857 -0.04619,0.22434 -0.02639,0.0792 -0.07258,0.11218 -0.03959,0.033 -0.09897,0.033 -0.08578,0 -0.277129,-0.11877 -0.19135,-0.11877 -0.508068,-0.25734 -0.316718,-0.13856 -0.758803,-0.25733 -0.435488,-0.11877 -1.016137,-0.11877 -0.62024,0 -1.12171,0.21775 -0.50147,0.21114 -0.857778,0.60704 -0.356307,0.3893 -0.547658,0.94355 -0.19135,0.54766 -0.19135,1.21409 0,0.73241 0.19135,1.29326 0.197949,0.55426 0.547658,0.93036 0.34971,0.37611 0.837983,0.56746 0.494872,0.19135 1.088718,0.19135 0.290325,0 0.574052,-0.066 0.283726,-0.066 0.527863,-0.19794 v -1.97949 h -1.616581 q -0.11877,0 -0.184752,-0.14516 -0.06598,-0.15176 -0.06598,-0.50807 0,-0.18475 0.0132,-0.31012 0.0198,-0.12537 0.05279,-0.19795 0.03299,-0.0792 0.07918,-0.11217 0.04619,-0.0396 0.105573,-0.0396 h 2.883453 q 0.105573,0 0.184752,0.0396 0.08578,0.033 0.145162,0.10557 0.06598,0.0726 0.09897,0.17815 0.03299,0.099 0.03299,0.23094 v 3.39812 q 0,0.19795 -0.07258,0.34971 -0.06598,0.14517 -0.283726,0.23094 -0.211146,0.0858 -0.527864,0.17816 -0.316718,0.0924 -0.659829,0.15836 -0.336513,0.066 -0.686222,0.099 -0.343111,0.033 -0.692821,0.033 -1.022735,0 -1.834325,-0.29032 -0.804991,-0.29693 -1.365846,-0.85118 -0.560855,-0.56086 -0.857778,-1.35925 -0.296923,-0.80499 -0.296923,-1.82113 0,-1.04913 0.316718,-1.88051 0.316718,-0.83798 0.897368,-1.41863 0.580649,-0.58725 1.398838,-0.89737 0.824786,-0.31012 1.834324,-0.31012 0.554257,0 1.009539,0.0792 0.455282,0.0726 0.791795,0.18475 0.343111,0.10557 0.567453,0.23094 0.224342,0.12537 0.31012,0.21774 0.09238,0.0924 0.131965,0.26394 0.03959,0.16495 0.03959,0.49487 z"
           id="path8023" />
        <path
           d="m 107.89707,166.19213 q 0.0792,0.23754 0.099,0.3761 0.0198,0.13856 -0.0528,0.21115 -0.0726,0.066 -0.25733,0.0792 -0.18475,0.0198 -0.50807,0.0198 -0.33651,0 -0.52786,-0.0132 -0.18475,-0.007 -0.28373,-0.033 -0.099,-0.033 -0.13856,-0.0858 -0.0396,-0.0528 -0.066,-0.13856 l -0.57406,-1.71556 h -3.20676 l -0.54106,1.66937 q -0.0264,0.0924 -0.0726,0.15836 -0.0396,0.0594 -0.13856,0.099 -0.0924,0.033 -0.27053,0.0462 -0.17156,0.0132 -0.45528,0.0132 -0.30352,0 -0.47508,-0.0198 -0.17155,-0.0198 -0.23754,-0.0924 -0.066,-0.0792 -0.0462,-0.21774 0.0198,-0.13857 0.099,-0.36951 l 2.63272,-7.57484 q 0.0396,-0.11217 0.0924,-0.17815 0.0528,-0.0726 0.16496,-0.10557 0.11877,-0.0396 0.32332,-0.0462 0.20454,-0.0132 0.54106,-0.0132 0.3893,0 0.62024,0.0132 0.23094,0.007 0.3563,0.0462 0.13197,0.033 0.18476,0.10557 0.0594,0.0726 0.099,0.19795 z m -3.91939,-6.26178 h -0.007 l -1.20748,3.62906 h 2.42157 z"
           id="path8025" />
        <path
           d="m 115.08848,166.61442 q 0,0.0726 -0.0264,0.12537 -0.0264,0.0462 -0.12537,0.0792 -0.099,0.033 -0.29033,0.0462 -0.19135,0.0132 -0.52126,0.0132 -0.27713,0 -0.44209,-0.0132 -0.16495,-0.0132 -0.26393,-0.0462 -0.0924,-0.0396 -0.13196,-0.0924 -0.0396,-0.0594 -0.066,-0.13856 l -0.7654,-1.90691 q -0.13856,-0.32332 -0.27053,-0.57405 -0.13196,-0.25074 -0.29692,-0.41569 -0.15836,-0.17156 -0.36951,-0.25734 -0.21114,-0.0858 -0.48827,-0.0858 h -0.54106 v 3.25296 q 0,0.066 -0.0462,0.11877 -0.0396,0.0528 -0.13856,0.0858 -0.099,0.033 -0.26393,0.0528 -0.16496,0.0198 -0.42229,0.0198 -0.25074,0 -0.42229,-0.0198 -0.16496,-0.0198 -0.26394,-0.0528 -0.099,-0.033 -0.13856,-0.0858 -0.0396,-0.0528 -0.0396,-0.11877 v -7.75299 q 0,-0.29032 0.14516,-0.41569 0.15176,-0.13197 0.36951,-0.13197 h 2.21042 q 0.33652,0 0.55426,0.0132 0.21774,0.0132 0.3959,0.033 0.51466,0.0726 0.92376,0.25073 0.41569,0.17816 0.69942,0.46848 0.29032,0.28373 0.44208,0.67963 0.15176,0.3893 0.15176,0.89737 0,0.42888 -0.11217,0.78519 -0.10557,0.34971 -0.31672,0.62684 -0.21114,0.27713 -0.52126,0.48167 -0.31012,0.20455 -0.70602,0.32992 0.19135,0.0924 0.35631,0.22434 0.17156,0.13197 0.31672,0.32332 0.15176,0.18475 0.28373,0.42889 0.13196,0.23753 0.25733,0.54106 l 0.71921,1.68256 q 0.099,0.25074 0.13197,0.3695 0.033,0.11218 0.033,0.17816 z m -2.23682,-5.7933 q 0,-0.42229 -0.19135,-0.71262 -0.19135,-0.29032 -0.62684,-0.40909 -0.13197,-0.033 -0.30352,-0.0528 -0.16496,-0.0198 -0.46188,-0.0198 h -0.7786 v 2.42157 h 0.88417 q 0.36951,0 0.64663,-0.0858 0.27713,-0.0924 0.46188,-0.25073 0.18476,-0.16496 0.27713,-0.3893 0.0924,-0.22434 0.0924,-0.50147 z"
           id="path8027" />
        <path
           d="m 119.21845,163.599 v 3.00222 q 0,0.066 -0.0462,0.11877 -0.0396,0.0528 -0.13857,0.0858 -0.099,0.033 -0.27053,0.0528 -0.16495,0.0198 -0.41569,0.0198 -0.25733,0 -0.42229,-0.0198 -0.16496,-0.0198 -0.27053,-0.0528 -0.099,-0.033 -0.13856,-0.0858 -0.0396,-0.0528 -0.0396,-0.11877 V 163.599 l -2.3358,-4.6518 q -0.12537,-0.24413 -0.16495,-0.3761 -0.033,-0.13856 0.0396,-0.20455 0.0792,-0.0726 0.28373,-0.0858 0.20455,-0.0198 0.56745,-0.0198 0.30353,0 0.48168,0.0132 0.18475,0.0132 0.29032,0.0528 0.10558,0.033 0.15177,0.0924 0.0528,0.0594 0.099,0.15176 l 0.95015,2.09826 q 0.13857,0.30352 0.27053,0.64003 0.13857,0.33652 0.27713,0.70602 h 0.0132 q 0.12537,-0.35631 0.25733,-0.69282 0.13197,-0.33651 0.25733,-0.64004 l 0.93696,-2.08506 q 0.033,-0.10557 0.0792,-0.16495 0.0528,-0.066 0.15176,-0.10557 0.099,-0.0396 0.27053,-0.0528 0.17156,-0.0132 0.45528,-0.0132 0.37611,0 0.58065,0.0198 0.21115,0.0132 0.28373,0.0858 0.0792,0.066 0.0396,0.20455 -0.0396,0.13857 -0.15836,0.3761 z"
           id="path8029" />
        <path
           d="m 128.30273,160.8937 q 0,0.71921 -0.22434,1.27347 -0.22435,0.55426 -0.65323,0.93696 -0.42889,0.3761 -1.05573,0.57405 -0.62024,0.19795 -1.46482,0.19795 h -0.71262 v 2.72509 q 0,0.066 -0.0462,0.11877 -0.0396,0.0528 -0.13856,0.0858 -0.099,0.033 -0.26393,0.0528 -0.16496,0.0198 -0.42229,0.0198 -0.25074,0 -0.42229,-0.0198 -0.16496,-0.0198 -0.26393,-0.0528 -0.099,-0.033 -0.13857,-0.0858 -0.0396,-0.0528 -0.0396,-0.11877 v -7.68041 q 0,-0.31012 0.15836,-0.46188 0.16496,-0.15836 0.42889,-0.15836 h 2.01248 q 0.30352,0 0.57405,0.0264 0.27713,0.0198 0.65983,0.099 0.3827,0.0726 0.772,0.27713 0.3959,0.20454 0.67303,0.52126 0.27712,0.31012 0.42229,0.73241 0.14516,0.4157 0.14516,0.93696 z m -1.81453,0.12537 q 0,-0.44869 -0.15836,-0.73901 -0.15836,-0.29033 -0.3893,-0.42889 -0.23094,-0.13856 -0.48827,-0.17156 -0.25074,-0.0396 -0.52127,-0.0396 h -0.73901 v 2.89665 h 0.7786 q 0.41569,0 0.69282,-0.11217 0.28373,-0.11217 0.46188,-0.31012 0.17816,-0.20454 0.27053,-0.48167 0.0924,-0.28373 0.0924,-0.61364 z"
           id="path8031" />
      </g>
      <text
         xml:space="preserve"
         style="font-variant:normal;font-weight:normal;font-stretch:normal;font-size:2.20525px;font-family:'Myriad Pro';-inkscape-font-specification:MyriadPro-Regular;writing-mode:lr-tb;fill:#4f4c4d;fill-opacity:1;fill-rule:nonzero;stroke:none;stroke-width:0.352778"
         id="text153"
         x="91.654099"
         y="170.02837"><tspan
           x="91.654099 93.173515 94.39743 95.64119 96.746025 97.46714 98.710899 99.815727 100.92056 101.44099 101.90851 102.96924 104.03217 105.25608 105.72359 106.80857 108.03249 109.13731 109.85844 110.80228 111.33816 112.37683 112.84434 114.03959 115.25027 116.46095 117.71574 118.82056 119.54168 120.60461 121.66754 122.54082 123.0767 124.18153 124.64904 126.07363 127.13215 127.90839 128.94707"
           y="170.02837"
           sodipodi:role="line"
           id="tspan151"
           style="stroke-width:0.352778">Onderdeel van Enerzjy Koöperaasje Garyp</tspan></text>
      <g
         aria-label="AARDGASVRIJ"
         id="text157"
         style="font-size:8.82096px;font-family:Calibri;-inkscape-font-specification:Calibri;fill:#231f20;stroke-width:0.352778">
        <path
           d="m 83.359671,156.31075 q 0.03446,0.0948 0.03446,0.15506 0.0043,0.056 -0.03015,0.0861 -0.03446,0.0301 -0.116292,0.0388 -0.07753,0.009 -0.211048,0.009 -0.133521,0 -0.215356,-0.009 -0.07753,-0.004 -0.120599,-0.0172 -0.03876,-0.0172 -0.0603,-0.0431 -0.01723,-0.0258 -0.03446,-0.0646 l -0.478089,-1.35674 h -2.317225 l -0.456554,1.33951 q -0.01292,0.0388 -0.03446,0.0689 -0.02154,0.0258 -0.06461,0.0474 -0.03876,0.0172 -0.116292,0.0258 -0.07322,0.009 -0.19382,0.009 -0.124906,0 -0.206741,-0.0129 -0.07753,-0.009 -0.111985,-0.0388 -0.03015,-0.0301 -0.03015,-0.0861 0.0043,-0.0603 0.03876,-0.15505 l 1.869285,-5.17715 q 0.01723,-0.0474 0.04307,-0.0775 0.03015,-0.0301 0.08184,-0.0474 0.05599,-0.0172 0.137827,-0.0215 0.08614,-0.009 0.215356,-0.009 0.137827,0 0.228276,0.009 0.09045,0.004 0.146442,0.0215 0.05599,0.0172 0.08614,0.0517 0.03015,0.0301 0.04738,0.0775 z m -2.39906,-4.56984 h -0.0043 l -0.960486,2.77809 h 1.9382 z"
           id="path8000" />
        <path
           d="m 88.484648,156.31075 q 0.03446,0.0948 0.03446,0.15506 0.0043,0.056 -0.03015,0.0861 -0.03446,0.0301 -0.116292,0.0388 -0.07753,0.009 -0.211048,0.009 -0.133521,0 -0.215356,-0.009 -0.07753,-0.004 -0.120599,-0.0172 -0.03876,-0.0172 -0.0603,-0.0431 -0.01723,-0.0258 -0.03446,-0.0646 l -0.478089,-1.35674 H 84.93559 l -0.456554,1.33951 q -0.01292,0.0388 -0.03446,0.0689 -0.02154,0.0258 -0.06461,0.0474 -0.03876,0.0172 -0.116292,0.0258 -0.07322,0.009 -0.19382,0.009 -0.124906,0 -0.206741,-0.0129 -0.07753,-0.009 -0.111985,-0.0388 -0.03015,-0.0301 -0.03015,-0.0861 0.0043,-0.0603 0.03876,-0.15505 l 1.869285,-5.17715 q 0.01723,-0.0474 0.04307,-0.0775 0.03015,-0.0301 0.08183,-0.0474 0.05599,-0.0172 0.137827,-0.0215 0.08614,-0.009 0.215356,-0.009 0.137827,0 0.228276,0.009 0.09045,0.004 0.146442,0.0215 0.05599,0.0172 0.08614,0.0517 0.03015,0.0301 0.04738,0.0775 z m -2.39906,-4.56984 h -0.0043 l -0.960485,2.77809 h 1.938199 z"
           id="path8002" />
        <path
           d="m 93.153072,156.4615 q 0,0.0345 -0.01292,0.0603 -0.01292,0.0258 -0.05599,0.0431 -0.04307,0.0172 -0.120599,0.0258 -0.07753,0.009 -0.206742,0.009 -0.111984,0 -0.185205,-0.009 -0.06891,-0.009 -0.111985,-0.0258 -0.04307,-0.0215 -0.06891,-0.056 -0.02154,-0.0345 -0.03876,-0.0861 l -0.512546,-1.31367 q -0.09045,-0.22397 -0.189513,-0.40918 -0.09476,-0.18951 -0.228276,-0.32303 -0.133521,-0.13783 -0.314419,-0.21105 -0.180899,-0.0775 -0.435018,-0.0775 h -0.495318 v 2.37322 q 0,0.0345 -0.02154,0.0603 -0.01723,0.0258 -0.0603,0.0431 -0.03876,0.0129 -0.111985,0.0215 -0.06891,0.0129 -0.176591,0.0129 -0.107678,0 -0.180899,-0.0129 -0.06891,-0.009 -0.111985,-0.0215 -0.04307,-0.0172 -0.0603,-0.0431 -0.01723,-0.0258 -0.01723,-0.0603 v -5.15992 q 0,-0.16797 0.08614,-0.23258 0.09045,-0.0689 0.189513,-0.0689 h 1.184455 q 0.211049,0 0.348876,0.0129 0.142135,0.009 0.25412,0.0215 0.323033,0.056 0.568538,0.1766 0.249812,0.12059 0.41779,0.3058 0.167977,0.18521 0.249812,0.4264 0.08614,0.23689 0.08614,0.52547 0,0.27996 -0.07753,0.50393 -0.07322,0.21967 -0.215355,0.39195 -0.142135,0.16798 -0.340262,0.29288 -0.198127,0.12491 -0.443632,0.21105 0.137827,0.0603 0.249812,0.15506 0.111985,0.0904 0.206741,0.21966 0.09906,0.12921 0.185206,0.29719 0.08614,0.16798 0.172284,0.37903 l 0.499625,1.22752 q 0.0603,0.15506 0.07753,0.21967 0.01723,0.0603 0.01723,0.0948 z m -1.115542,-3.91516 q 0,-0.32734 -0.146442,-0.55131 -0.146441,-0.22828 -0.49101,-0.32734 -0.107678,-0.0301 -0.245505,-0.0431 -0.133521,-0.0129 -0.353183,-0.0129 h -0.624531 v 1.8779 h 0.723594 q 0.292884,0 0.503932,-0.0689 0.215356,-0.0732 0.35749,-0.19812 0.142135,-0.12922 0.206741,-0.3015 0.06891,-0.17229 0.06891,-0.37472 z"
           id="path8004" />
        <path
           d="m 98.529036,153.70495 q 0,0.7236 -0.185205,1.26629 -0.185206,0.53839 -0.542696,0.89588 -0.353183,0.35318 -0.870036,0.52977 -0.516853,0.1766 -1.231833,0.1766 h -1.180148 q -0.09906,0 -0.189513,-0.0646 -0.08614,-0.0689 -0.08614,-0.23689 v -4.97041 q 0,-0.16797 0.08614,-0.23258 0.09045,-0.0689 0.189513,-0.0689 h 1.261983 q 0.723594,0 1.223219,0.18951 0.499624,0.18521 0.835579,0.53839 0.340262,0.34887 0.512546,0.8485 0.176591,0.49962 0.176591,1.12846 z m -0.779586,0.0301 q 0,-0.45225 -0.111985,-0.83989 -0.111985,-0.39194 -0.353183,-0.67621 -0.236891,-0.28427 -0.602995,-0.44363 Q 96.315182,151.616 95.73803,151.616 h -0.753745 v 4.33726 h 0.762359 q 0.534081,0 0.900186,-0.13352 0.366104,-0.13352 0.611609,-0.40917 0.245505,-0.27566 0.366104,-0.68914 0.124907,-0.41779 0.124907,-0.98633 z"
           id="path8006" />
        <path
           d="m 103.8725,151.75814 q 0,0.0818 -0.009,0.14644 -0.009,0.0603 -0.0258,0.10337 -0.0172,0.0388 -0.0431,0.056 -0.0258,0.0172 -0.056,0.0172 -0.0517,0 -0.17228,-0.0818 -0.1206,-0.0818 -0.32304,-0.1809 -0.20243,-0.0991 -0.4867,-0.1809 -0.27996,-0.0818 -0.6676,-0.0818 -0.46086,0 -0.82697,0.16798 -0.3661,0.16798 -0.62022,0.46517 -0.25412,0.29719 -0.39195,0.70636 -0.13352,0.40918 -0.13352,0.88727 0,0.53408 0.14644,0.94756 0.15075,0.41349 0.41349,0.69776 0.26273,0.28426 0.62453,0.43071 0.3661,0.14644 0.80112,0.14644 0.25843,0 0.52116,-0.0603 0.26704,-0.0646 0.49532,-0.18951 v -1.62378 h -1.29214 q -0.0732,0 -0.11198,-0.0732 -0.0345,-0.0732 -0.0345,-0.22827 0,-0.0818 0.009,-0.13783 0.009,-0.0603 0.0258,-0.0948 0.0215,-0.0388 0.0474,-0.056 0.0258,-0.0172 0.0646,-0.0172 h 1.77023 q 0.0474,0 0.0947,0.0172 0.0474,0.0172 0.0861,0.0517 0.0388,0.0344 0.0603,0.0948 0.0215,0.0603 0.0215,0.13783 v 2.12341 q 0,0.11198 -0.0388,0.19382 -0.0388,0.0818 -0.16367,0.14644 -0.12491,0.0603 -0.32304,0.13352 -0.19813,0.0732 -0.40917,0.1249 -0.21105,0.0517 -0.42641,0.0775 -0.21535,0.0258 -0.4264,0.0258 -0.64607,0 -1.15431,-0.19812 -0.50824,-0.20244 -0.86142,-0.57285 -0.348874,-0.37041 -0.53408,-0.88726 -0.185206,-0.51686 -0.185206,-1.15431 0,-0.66329 0.198128,-1.20168 0.202434,-0.53839 0.564228,-0.91742 0.36611,-0.37902 0.87435,-0.58576 0.51254,-0.21105 1.13277,-0.21105 0.31872,0 0.59868,0.056 0.27997,0.056 0.49532,0.13352 0.21966,0.0732 0.36611,0.16367 0.15074,0.0861 0.20674,0.14214 0.056,0.056 0.0775,0.12921 0.0215,0.0732 0.0215,0.21105 z"
           id="path8008" />
        <path
           d="m 109.44325,156.31075 q 0.0345,0.0948 0.0345,0.15506 0.004,0.056 -0.0302,0.0861 -0.0345,0.0301 -0.11629,0.0388 -0.0775,0.009 -0.21105,0.009 -0.13352,0 -0.21536,-0.009 -0.0775,-0.004 -0.1206,-0.0172 -0.0388,-0.0172 -0.0603,-0.0431 -0.0172,-0.0258 -0.0345,-0.0646 l -0.47809,-1.35674 h -2.31723 l -0.45655,1.33951 q -0.0129,0.0388 -0.0345,0.0689 -0.0215,0.0258 -0.0646,0.0474 -0.0388,0.0172 -0.1163,0.0258 -0.0732,0.009 -0.19382,0.009 -0.1249,0 -0.20674,-0.0129 -0.0775,-0.009 -0.11198,-0.0388 -0.0301,-0.0301 -0.0301,-0.0861 0.004,-0.0603 0.0388,-0.15505 l 1.86929,-5.17715 q 0.0172,-0.0474 0.0431,-0.0775 0.0302,-0.0301 0.0818,-0.0474 0.056,-0.0172 0.13783,-0.0215 0.0861,-0.009 0.21536,-0.009 0.13782,0 0.22827,0.009 0.0905,0.004 0.14645,0.0215 0.056,0.0172 0.0861,0.0517 0.0302,0.0301 0.0474,0.0775 z m -2.39906,-4.56984 h -0.004 l -0.96048,2.77809 h 1.9382 z"
           id="path8010" />
        <path
           d="m 113.38808,155.01001 q 0,0.39194 -0.14644,0.69775 -0.14214,0.3058 -0.40056,0.52116 -0.25412,0.21105 -0.603,0.31872 -0.34457,0.10768 -0.74513,0.10768 -0.27996,0 -0.52116,-0.0474 -0.23689,-0.0474 -0.4264,-0.11629 -0.18521,-0.0689 -0.31442,-0.14213 -0.12491,-0.0732 -0.17659,-0.12491 -0.0474,-0.0517 -0.0732,-0.12921 -0.0215,-0.0818 -0.0215,-0.21536 0,-0.0948 0.009,-0.15505 0.009,-0.0646 0.0258,-0.10337 0.0172,-0.0388 0.0431,-0.0517 0.0258,-0.0172 0.0603,-0.0172 0.0603,0 0.16798,0.0732 0.11198,0.0732 0.28426,0.15937 0.17229,0.0861 0.41349,0.16367 0.2455,0.0732 0.56423,0.0732 0.2412,0 0.43932,-0.0646 0.20244,-0.0646 0.34457,-0.1809 0.14644,-0.1206 0.22397,-0.29288 0.0775,-0.17229 0.0775,-0.39195 0,-0.23689 -0.10768,-0.40487 -0.10768,-0.16797 -0.28427,-0.29288 -0.17659,-0.12921 -0.40486,-0.23258 -0.22397,-0.10768 -0.46087,-0.21536 -0.23689,-0.11199 -0.46086,-0.24551 -0.22397,-0.13352 -0.40056,-0.31441 -0.17659,-0.1809 -0.28857,-0.4221 -0.10768,-0.24551 -0.10768,-0.58577 0,-0.34887 0.1249,-0.62022 0.12922,-0.27566 0.35319,-0.46086 0.22827,-0.18521 0.53839,-0.27996 0.31442,-0.0991 0.67621,-0.0991 0.18521,0 0.37041,0.0345 0.18952,0.0301 0.35319,0.0861 0.16797,0.0517 0.29719,0.1206 0.12921,0.0646 0.16797,0.10768 0.0431,0.0388 0.056,0.0646 0.0129,0.0215 0.0215,0.0603 0.009,0.0345 0.0129,0.0862 0.004,0.0517 0.004,0.13352 0,0.0775 -0.009,0.13782 -0.004,0.0603 -0.0172,0.10337 -0.0129,0.0388 -0.0388,0.0603 -0.0215,0.0172 -0.0517,0.0172 -0.0474,0 -0.15075,-0.0603 -0.0991,-0.0603 -0.2455,-0.13352 -0.14645,-0.0775 -0.34888,-0.13783 -0.19813,-0.0646 -0.44794,-0.0646 -0.23258,0 -0.40487,0.0646 -0.17228,0.0603 -0.28427,0.16368 -0.11198,0.10337 -0.16797,0.2455 -0.056,0.14213 -0.056,0.3015 0,0.23258 0.10768,0.40056 0.10768,0.16798 0.28427,0.29719 0.1809,0.12921 0.40917,0.23689 0.22828,0.10768 0.46517,0.21966 0.23689,0.10768 0.46517,0.2412 0.22828,0.12921 0.40487,0.31011 0.1809,0.17659 0.28858,0.4221 0.11198,0.2412 0.11198,0.57285 z"
           id="path8012" />
        <path
           d="m 116.71372,156.44427 q -0.0172,0.0474 -0.0474,0.0775 -0.0301,0.0301 -0.0861,0.0474 -0.0517,0.0172 -0.13782,0.0215 -0.0818,0.009 -0.20674,0.009 -0.0948,0 -0.16798,-0.004 -0.0689,0 -0.1206,-0.009 -0.0517,-0.009 -0.0904,-0.0172 -0.0345,-0.0129 -0.0603,-0.0301 -0.0258,-0.0172 -0.0431,-0.0388 -0.0129,-0.0258 -0.0258,-0.0603 l -1.82191,-5.17715 q -0.0345,-0.0948 -0.0388,-0.15075 0,-0.0603 0.0388,-0.0904 0.0388,-0.0302 0.12491,-0.0388 0.0861,-0.009 0.23258,-0.009 0.1206,0 0.18951,0.009 0.0732,0.004 0.11199,0.0215 0.0388,0.0172 0.056,0.0474 0.0215,0.0258 0.0388,0.0689 l 1.59794,4.69044 h 0.004 l 1.55486,-4.68183 q 0.0129,-0.0474 0.0302,-0.0775 0.0172,-0.0301 0.0603,-0.0474 0.0431,-0.0172 0.1206,-0.0215 0.0775,-0.009 0.20674,-0.009 0.13352,0 0.21105,0.0129 0.0775,0.009 0.10337,0.0388 0.0301,0.0302 0.0215,0.0905 -0.004,0.056 -0.0388,0.15075 z"
           id="path8014" />
        <path
           d="m 123.19727,156.4615 q 0,0.0345 -0.0129,0.0603 -0.0129,0.0258 -0.056,0.0431 -0.0431,0.0172 -0.12059,0.0258 -0.0775,0.009 -0.20675,0.009 -0.11198,0 -0.1852,-0.009 -0.0689,-0.009 -0.11199,-0.0258 -0.0431,-0.0215 -0.0689,-0.056 -0.0215,-0.0345 -0.0388,-0.0861 l -0.51255,-1.31367 q -0.0905,-0.22397 -0.18951,-0.40918 -0.0948,-0.18951 -0.22828,-0.32303 -0.13352,-0.13783 -0.31442,-0.21105 -0.1809,-0.0775 -0.43502,-0.0775 h -0.49531 v 2.37322 q 0,0.0345 -0.0215,0.0603 -0.0172,0.0258 -0.0603,0.0431 -0.0388,0.0129 -0.11198,0.0215 -0.0689,0.0129 -0.1766,0.0129 -0.10767,0 -0.18089,-0.0129 -0.0689,-0.009 -0.11199,-0.0215 -0.0431,-0.0172 -0.0603,-0.0431 -0.0172,-0.0258 -0.0172,-0.0603 v -5.15992 q 0,-0.16797 0.0861,-0.23258 0.0904,-0.0689 0.18951,-0.0689 h 1.18445 q 0.21105,0 0.34888,0.0129 0.14213,0.009 0.25412,0.0215 0.32303,0.056 0.56854,0.1766 0.24981,0.12059 0.41779,0.3058 0.16797,0.18521 0.24981,0.4264 0.0861,0.23689 0.0861,0.52547 0,0.27996 -0.0775,0.50393 -0.0732,0.21967 -0.21535,0.39195 -0.14214,0.16798 -0.34026,0.29288 -0.19813,0.12491 -0.44364,0.21105 0.13783,0.0603 0.24982,0.15506 0.11198,0.0904 0.20674,0.21966 0.0991,0.12921 0.1852,0.29719 0.0862,0.16798 0.17229,0.37903 l 0.49962,1.22752 q 0.0603,0.15506 0.0775,0.21967 0.0172,0.0603 0.0172,0.0948 z m -1.11554,-3.91516 q 0,-0.32734 -0.14644,-0.55131 -0.14645,-0.22828 -0.49101,-0.32734 -0.10768,-0.0301 -0.24551,-0.0431 -0.13352,-0.0129 -0.35318,-0.0129 h -0.62453 v 1.8779 h 0.72359 q 0.29288,0 0.50393,-0.0689 0.21536,-0.0732 0.35749,-0.19812 0.14214,-0.12922 0.20674,-0.3015 0.0689,-0.17229 0.0689,-0.37472 z"
           id="path8016" />
        <path
           d="m 125.02847,156.4615 q 0,0.0345 -0.0172,0.0603 -0.0172,0.0258 -0.0603,0.0431 -0.0431,0.0129 -0.1163,0.0215 -0.0689,0.0129 -0.17659,0.0129 -0.10337,0 -0.17659,-0.0129 -0.0732,-0.009 -0.11629,-0.0215 -0.0431,-0.0172 -0.0603,-0.0431 -0.0172,-0.0258 -0.0172,-0.0603 v -5.34943 q 0,-0.0345 0.0172,-0.0603 0.0215,-0.0258 0.0646,-0.0388 0.0474,-0.0172 0.11629,-0.0258 0.0732,-0.0129 0.17228,-0.0129 0.10768,0 0.17659,0.0129 0.0732,0.009 0.1163,0.0258 0.0431,0.0129 0.0603,0.0388 0.0172,0.0258 0.0172,0.0603 z"
           id="path8018" />
        <path
           d="m 127.87199,155.16937 q 0,0.33165 -0.0603,0.6073 -0.0603,0.27566 -0.20674,0.46948 -0.14644,0.19382 -0.38764,0.30149 -0.23689,0.10337 -0.59007,0.10337 -0.1206,0 -0.2412,-0.0215 -0.11629,-0.0172 -0.21535,-0.0517 -0.0991,-0.0301 -0.17229,-0.0646 -0.0732,-0.0388 -0.0991,-0.0646 -0.0215,-0.0258 -0.0388,-0.0517 -0.0129,-0.0258 -0.0258,-0.0603 -0.009,-0.0388 -0.0129,-0.0905 -0.004,-0.056 -0.004,-0.13352 0,-0.0948 0.004,-0.15506 0.009,-0.0646 0.0258,-0.0991 0.0172,-0.0388 0.0388,-0.0517 0.0258,-0.0172 0.0603,-0.0172 0.0345,0 0.0861,0.0345 0.056,0.0301 0.12921,0.0689 0.0775,0.0388 0.17659,0.0732 0.0991,0.0301 0.23259,0.0301 0.14644,0 0.24981,-0.0344 0.10337,-0.0388 0.17228,-0.13783 0.0689,-0.0991 0.10337,-0.27135 0.0345,-0.17659 0.0345,-0.45655 v -3.98839 q 0,-0.0302 0.0172,-0.056 0.0172,-0.0258 0.0603,-0.0431 0.0431,-0.0172 0.11198,-0.0258 0.0732,-0.009 0.1809,-0.009 0.10337,0 0.17659,0.009 0.0732,0.009 0.11199,0.0258 0.0431,0.0172 0.0603,0.0431 0.0215,0.0258 0.0215,0.056 z"
           id="path8020" />
      </g>
    </g>
  </g>
</svg>
