<?xml version="1.0" encoding="UTF-8" standalone="no"?>
<!-- Created with Inkscape (http://www.inkscape.org/) -->

<svg
   width="1000"
   height="375.72412"
   viewBox="0 0 264.58333 99.410339"
   version="1.1"
   id="svg38201"
   inkscape:version="1.2 (dc2aeda, 2022-05-15)"
   sodipodi:docname="tdiel.svg"
   xmlns:inkscape="http://www.inkscape.org/namespaces/inkscape"
   xmlns:sodipodi="http://sodipodi.sourceforge.net/DTD/sodipodi-0.dtd"
   xmlns="http://www.w3.org/2000/svg"
   xmlns:svg="http://www.w3.org/2000/svg">
  <sodipodi:namedview
     id="namedview38203"
     pagecolor="#ffffff"
     bordercolor="#666666"
     borderopacity="1.0"
     inkscape:showpageshadow="2"
     inkscape:pageopacity="0.0"
     inkscape:pagecheckerboard="true"
     inkscape:deskcolor="#d1d1d1"
     inkscape:document-units="px"
     showgrid="false"
     inkscape:zoom="0.2102413"
     inkscape:cx="406.67556"
     inkscape:cy="266.3606"
     inkscape:window-width="1572"
     inkscape:window-height="956"
     inkscape:window-x="3184"
     inkscape:window-y="346"
     inkscape:window-maximized="0"
     inkscape:current-layer="layer1" />
  <defs
     id="defs38198" />
  <g
     inkscape:label="Laag 1"
     inkscape:groupmode="layer"
     id="layer1"
     transform="translate(2.9024724e-5,-82.586494)">
    <g
       id="g38429"
       transform="matrix(3.9061636,0,0,3.9061636,-1632.4831,-1332.619)">
      <path
         fill-rule="nonzero"
         fill="#46ba3a"
         fill-opacity="1"
         d="m 418.8166,373.60742 c 0.0469,0.0703 0.0689,0.14745 0.0689,0.24391 0,0.23703 -0.20946,0.44236 -0.45613,0.44236 -0.0152,0 -0.0386,-0.003 -0.0717,-0.006 l -0.0386,-10e-4 c -0.10887,0.0896 -0.15296,0.14194 -0.15296,0.17501 0,0.0317 0.0262,0.0427 0.0978,0.0427 h 0.43821 c 0.21774,0 0.31557,0.0841 0.31557,0.27423 0,0.27423 -0.28249,0.49471 -0.63389,0.49471 -0.24667,0 -0.45889,-0.12953 -0.45889,-0.28249 0,-0.0345 0.0138,-0.0758 0.0358,-0.12265 0.0344,-0.0634 0.0675,-0.10748 0.15572,-0.20119 -0.11852,-0.0345 -0.16812,-0.073 -0.16812,-0.14056 0,-0.0744 0.073,-0.16261 0.23013,-0.29215 -0.14745,-0.0799 -0.22462,-0.20946 -0.22462,-0.37345 0,-0.26458 0.1943,-0.44786 0.46853,-0.44786 0.0854,0 0.13505,0.01 0.24805,0.0496 h 0.17914 l 0.21222,-0.0193 v 0.16398 z m -0.11438,1.07487 h -0.43821 l -0.0386,0.0593 c -0.0758,0.11713 -0.0978,0.16398 -0.0978,0.20808 0,0.0882 0.11576,0.15021 0.27423,0.15021 0.2384,0 0.45338,-0.14056 0.45338,-0.29766 0,-0.0813 -0.0496,-0.11989 -0.15297,-0.11989 m -0.29214,-1.12172 c -0.14332,0 -0.26045,0.13229 -0.26045,0.29214 0,0.16123 0.11713,0.29353 0.26183,0.29353 0.14882,0 0.26183,-0.12679 0.26183,-0.29353 0,-0.16261 -0.11576,-0.29214 -0.26321,-0.29214"
         id="path27075"
         style="stroke-width:0.352778" />
      <path
         fill-rule="nonzero"
         fill="#46ba3a"
         fill-opacity="1"
         d="m 419.94522,374.01394 c 0,0.28526 0.14607,0.45889 0.38447,0.45889 0.10335,0 0.17777,-0.0289 0.30454,-0.11713 l 0.0786,0.15296 c -0.17363,0.10887 -0.27285,0.14194 -0.42581,0.14194 -0.32522,0 -0.54571,-0.24805 -0.54571,-0.61874 0,-0.37207 0.22049,-0.61874 0.55397,-0.61874 0.27561,0 0.45338,0.1943 0.45338,0.48645 v 0.11437 z m 0.33761,-0.42443 c -0.16398,0 -0.27698,0.0978 -0.32108,0.27974 h 0.57464 c -0.003,-0.1819 -0.0937,-0.27974 -0.25356,-0.27974"
         id="path27077"
         style="stroke-width:0.352778" />
      <path
         fill-rule="nonzero"
         fill="#46ba3a"
         fill-opacity="1"
         d="m 423.15053,374.61753 v -0.83096 c 0,-0.0854 -0.003,-0.1006 -0.0193,-0.13781 -0.0193,-0.0386 -0.0634,-0.062 -0.11851,-0.062 -0.10887,0 -0.22462,0.073 -0.39687,0.25631 l -0.0538,0.0565 v 0.71796 h -0.1943 v -0.83096 c 0,-0.0854 -0.003,-0.1006 -0.0179,-0.13781 -0.0207,-0.0386 -0.0648,-0.062 -0.11989,-0.062 -0.11851,0 -0.24529,0.0882 -0.45062,0.31282 v 0.71796 h -0.19431 v -1.17272 h 0.19431 v 0.24529 c 0.0813,-0.0909 0.10335,-0.11437 0.16123,-0.15985 0.0882,-0.0758 0.20395,-0.11713 0.31281,-0.11713 0.19431,0 0.29353,0.091 0.30593,0.27974 0.0827,-0.0937 0.10611,-0.11713 0.16399,-0.16261 0.0868,-0.0758 0.20394,-0.11713 0.31281,-0.11713 0.20808,0 0.30868,0.10611 0.30868,0.32659 v 0.87782 z m 0,0"
         id="path27079"
         style="stroke-width:0.352778" />
      <path
         fill-rule="nonzero"
         fill="#46ba3a"
         fill-opacity="1"
         d="m 424.39077,374.01394 c 0,0.28526 0.14469,0.45889 0.38309,0.45889 0.10335,0 0.17915,-0.0289 0.30592,-0.11713 l 0.0772,0.15296 c -0.17225,0.10887 -0.27147,0.14194 -0.42443,0.14194 -0.3266,0 -0.54571,-0.24805 -0.54571,-0.61874 0,-0.37207 0.21911,-0.61874 0.55398,-0.61874 0.27423,0 0.45337,0.1943 0.45337,0.48645 v 0.11437 z m 0.33624,-0.42443 c -0.16261,0 -0.27699,0.0978 -0.32109,0.27974 h 0.57602 c -0.003,-0.1819 -0.0937,-0.27974 -0.25493,-0.27974"
         id="path27081"
         style="stroke-width:0.352778" />
      <path
         fill-rule="nonzero"
         fill="#46ba3a"
         fill-opacity="1"
         d="m 426.12434,374.01394 c 0,0.28526 0.14469,0.45889 0.38309,0.45889 0.10336,0 0.17915,-0.0289 0.30593,-0.11713 l 0.0772,0.15296 c -0.17364,0.10887 -0.27148,0.14194 -0.42444,0.14194 -0.32659,0 -0.54708,-0.24805 -0.54708,-0.61874 0,-0.37207 0.22049,-0.61874 0.55535,-0.61874 0.27423,0 0.452,0.1943 0.452,0.48645 v 0.11437 z m 0.33624,-0.42443 c -0.16261,0 -0.27699,0.0978 -0.32108,0.27974 h 0.57464 c -10e-4,-0.1819 -0.0923,-0.27974 -0.25356,-0.27974"
         id="path27083"
         style="stroke-width:0.352778" />
      <path
         fill-rule="nonzero"
         fill="#46ba3a"
         fill-opacity="1"
         d="m 428.54555,374.61753 v -0.83096 c 0,-0.0786 -0.004,-0.10474 -0.0179,-0.13781 -0.0179,-0.0386 -0.0648,-0.062 -0.11851,-0.062 -0.11989,0 -0.24667,0.0882 -0.45062,0.31282 v 0.71796 h -0.1943 v -1.17272 h 0.1943 v 0.24529 c 0.0799,-0.0909 0.10335,-0.11437 0.15985,-0.15985 0.0882,-0.0758 0.20533,-0.11713 0.31419,-0.11713 0.20671,0 0.30868,0.10611 0.30868,0.32659 v 0.87782 z m 0,0"
         id="path27085"
         style="stroke-width:0.352778" />
      <path
         fill-rule="nonzero"
         fill="#46ba3a"
         fill-opacity="1"
         d="m 429.93186,374.65197 c -0.13505,0 -0.22462,-0.10748 -0.22462,-0.26182 v -0.78273 h -0.19706 v -0.11437 l 0.19706,-0.0482 v -0.34313 h 0.1943 v 0.34313 h 0.31006 v 0.16261 h -0.31006 v 0.66835 l 10e-4,0.0524 c 0.003,0.0358 0.003,0.0593 0.006,0.0717 0.003,0.0386 0.0262,0.0565 0.0675,0.0565 0.0496,0 0.0882,-0.0207 0.17087,-0.0827 l 0.0799,0.13091 c -0.13642,0.11301 -0.20119,0.14745 -0.2949,0.14745"
         id="path27087"
         style="stroke-width:0.352778" />
      <path
         fill-rule="nonzero"
         fill="#46ba3a"
         fill-opacity="1"
         d="m 431.10594,374.01394 c 0,0.28526 0.1447,0.45889 0.3831,0.45889 0.10335,0 0.17914,-0.0289 0.30592,-0.11713 l 0.0772,0.15296 c -0.17363,0.10887 -0.27147,0.14194 -0.42443,0.14194 -0.3266,0 -0.54708,-0.24805 -0.54708,-0.61874 0,-0.37207 0.22048,-0.61874 0.55535,-0.61874 0.27423,0 0.45199,0.1943 0.45199,0.48645 v 0.11437 z m 0.33625,-0.42443 c -0.16261,0 -0.27699,0.0978 -0.32109,0.27974 h 0.57465 c -0.003,-0.1819 -0.0923,-0.27974 -0.25356,-0.27974"
         id="path27089"
         style="stroke-width:0.352778" />
      <path
         fill-rule="nonzero"
         fill="#283a86"
         fill-opacity="1"
         d="m 435.7706,378.01301 c -0.15158,0.0868 -0.3073,0.13505 -0.45061,0.13505 -0.26872,0 -0.39412,-0.13918 -0.39412,-0.43822 v -1.24988 h -0.29766 v -0.32935 l 0.29766,-0.0524 v -0.60082 h 0.4892 v 0.60082 h 0.43684 v 0.38172 h -0.43684 v 0.89572 c 0,0.22462 0.022,0.28939 0.10473,0.28939 0.0606,0 0.13367,-0.0303 0.27699,-0.1254 l 0.16398,0.37758 c -0.0689,0.0427 -0.13367,0.0813 -0.19017,0.11576"
         id="path27091"
         style="stroke-width:0.352778" />
      <path
         fill-rule="nonzero"
         fill="#283a86"
         fill-opacity="1"
         d="m 437.3457,377.98269 c -0.0992,0.28664 -0.17363,0.44235 -0.32521,0.68902 -0.12127,0.20671 -0.18191,0.28939 -0.35416,0.50574 l -0.42444,-0.27698 c 0.19017,-0.20395 0.26459,-0.28939 0.37208,-0.46302 0.13504,-0.20395 0.19567,-0.32935 0.3073,-0.65319 l -0.74001,-1.70602 h 0.56224 l 0.35553,0.89711 0.0524,0.24115 0.0551,-0.24115 0.30317,-0.89711 h 0.51125 z m 0,0"
         id="path27093"
         style="stroke-width:0.352778" />
      <path
         fill-rule="nonzero"
         fill="#283a86"
         fill-opacity="1"
         d="m 439.41414,378.01301 c -0.15159,0.0868 -0.30731,0.13505 -0.44924,0.13505 -0.26872,0 -0.39412,-0.13918 -0.39412,-0.43822 v -1.24988 h -0.29904 v -0.32935 l 0.29904,-0.0524 v -0.60082 h 0.4892 v 0.60082 h 0.43684 v 0.38172 h -0.43684 v 0.89572 c 0,0.22462 0.0207,0.28939 0.10335,0.28939 0.0606,0 0.13505,-0.0303 0.27699,-0.1254 l 0.16536,0.37758 c -0.0703,0.0427 -0.13504,0.0813 -0.19154,0.11576"
         id="path27095"
         style="stroke-width:0.352778" />
      <path
         fill-rule="nonzero"
         fill="#283a86"
         fill-opacity="1"
         d="m 441.42744,376.63635 c -0.0523,-0.0345 -0.0992,-0.0648 -0.13917,-0.0854 -0.14194,-0.0868 -0.31557,-0.13918 -0.46302,-0.13918 -0.19844,0 -0.32935,0.0786 -0.32935,0.19017 0,0.091 0.0703,0.14745 0.25218,0.21222 0.22462,0.0785 0.51538,0.20808 0.60496,0.27698 0.12541,0.0868 0.20807,0.26872 0.20807,0.44649 0,0.36793 -0.3197,0.61047 -0.80476,0.61047 -0.0992,0 -0.20809,-0.0138 -0.32935,-0.04 -0.18604,-0.0386 -0.27699,-0.073 -0.49748,-0.18604 l 0.16399,-0.41893 c 0.20395,0.12541 0.28663,0.16399 0.4327,0.21085 0.0786,0.0262 0.15159,0.04 0.226,0.04 0.19844,0 0.31557,-0.0648 0.31557,-0.17364 0,-0.091 -0.0648,-0.15985 -0.20395,-0.21221 l -0.34589,-0.13367 c -0.35415,-0.13367 -0.51951,-0.32522 -0.51951,-0.59256 0,-0.37758 0.32935,-0.63252 0.81855,-0.63252 0.0951,0 0.20808,0.0124 0.33348,0.0386 0.19017,0.04 0.25909,0.0648 0.44098,0.1695 z m 0,0"
         id="path27097"
         style="stroke-width:0.352778" />
      <path
         fill-rule="nonzero"
         fill="#283a86"
         fill-opacity="1"
         d="m 442.53953,378.78333 c -0.0689,0.113 -0.11715,0.1819 -0.25082,0.35967 l -0.38033,-0.26872 c 0.11991,-0.14745 0.15984,-0.21221 0.21498,-0.33762 0.0785,-0.17639 0.113,-0.35415 0.113,-0.58842 v -1.87 h 0.51537 v 2.26412 c -0.0868,0.22049 -0.1295,0.3073 -0.2122,0.44097 m -0.0482,-3.07716 c -0.15988,0 -0.28942,-0.15571 -0.28942,-0.35002 0,-0.19568 0.12954,-0.3514 0.28942,-0.3514 0.15984,0 0.29076,0.15572 0.29076,0.3514 0,0.19431 -0.13092,0.35002 -0.29076,0.35002"
         id="path27099"
         style="stroke-width:0.352778" />
      <path
         fill-rule="nonzero"
         fill="#283a86"
         fill-opacity="1"
         d="m 444.97589,378.00474 c -0.2122,0.0951 -0.42856,0.14332 -0.66146,0.14332 -0.59806,0 -0.97427,-0.39412 -0.97427,-1.00873 0,-0.63665 0.43272,-1.11621 1.00874,-1.11621 0.49745,0 0.84335,0.37621 0.84335,0.92053 v 0.22187 h -1.33255 c 0.008,0.16812 0.0219,0.2384 0.0689,0.3197 0.0868,0.14745 0.26045,0.24253 0.4506,0.24253 0.0772,0 0.15572,-0.008 0.23841,-0.0345 0.12128,-0.0345 0.19843,-0.0744 0.38445,-0.19017 l 0.19019,0.39274 c -0.0951,0.0524 -0.16814,0.0868 -0.21636,0.10886 m -0.66146,-1.59301 c -0.23012,0 -0.38583,0.15572 -0.42855,0.42857 h 0.78824 c -0.0138,-0.3073 -0.11716,-0.42857 -0.35969,-0.42857"
         id="path27101"
         style="stroke-width:0.352778" />
      <path
         fill-rule="nonzero"
         fill="#283a86"
         fill-opacity="1"
         d="m 446.8073,376.69285 c -0.0565,-0.0427 -0.0992,-0.0606 -0.15572,-0.0606 -0.0827,0 -0.17363,0.0565 -0.25216,0.15159 -0.0937,0.11713 -0.1378,0.23426 -0.1378,0.38585 v 0.92191 h -0.51541 v -2.01332 h 0.44648 l 0.0219,0.44236 c 0.19431,-0.34176 0.31972,-0.47267 0.47544,-0.47267 0.10887,0 0.19981,0.0482 0.28113,0.14331 z m 0,0"
         id="path27103"
         style="stroke-width:0.352778" />
      <path
         fill-rule="nonzero"
         fill="#283a86"
         fill-opacity="1"
         d="m 448.57256,378.09156 -0.62699,-1.03491 v 1.03491 h -0.51537 v -3.15571 h 0.51537 v 2.01331 l 0.62699,-0.87092 h 0.58018 l -0.7221,0.92742 0.73173,1.0859 z m 0,0"
         id="path27105"
         style="stroke-width:0.352778" />
      <path
         fill-rule="nonzero"
         fill="#283a86"
         fill-opacity="1"
         d="m 451.01033,376.63635 c -0.0523,-0.0345 -0.10061,-0.0648 -0.13917,-0.0854 -0.14334,-0.0868 -0.3156,-0.13918 -0.46302,-0.13918 -0.19982,0 -0.32936,0.0786 -0.32936,0.19017 0,0.091 0.0689,0.14745 0.25217,0.21222 0.22461,0.0785 0.51403,0.20808 0.60498,0.27698 0.12537,0.0868 0.20807,0.26872 0.20807,0.44649 0,0.36793 -0.32107,0.61047 -0.80476,0.61047 -0.0992,0 -0.2081,-0.0138 -0.32935,-0.04 -0.18606,-0.0386 -0.27701,-0.073 -0.49749,-0.18604 l 0.16397,-0.41893 c 0.20398,0.12541 0.28667,0.16399 0.43272,0.21085 0.0786,0.0262 0.15159,0.04 0.22599,0.04 0.19843,0 0.31559,-0.0648 0.31559,-0.17364 0,-0.091 -0.0648,-0.15985 -0.20397,-0.21221 l -0.34587,-0.13367 c -0.35553,-0.13367 -0.51953,-0.32522 -0.51953,-0.59256 0,-0.37758 0.32935,-0.63252 0.81855,-0.63252 0.0951,0 0.2081,0.0124 0.33348,0.0386 0.19018,0.04 0.25908,0.0648 0.44097,0.1695 z m 0,0"
         id="path27107"
         style="stroke-width:0.352778" />
      <path
         fill-rule="nonzero"
         fill="#283a86"
         fill-opacity="1"
         d="m 452.70257,378.01301 c -0.15159,0.0868 -0.30731,0.13505 -0.45064,0.13505 -0.26871,0 -0.39412,-0.13918 -0.39412,-0.43822 v -1.24988 h -0.29902 v -0.32935 l 0.29902,-0.0524 v -0.60082 h 0.48923 v 0.60082 h 0.43681 v 0.38172 h -0.43681 v 0.89572 c 0,0.22462 0.0219,0.28939 0.1047,0.28939 0.0607,0 0.13367,-0.0303 0.277,-0.1254 l 0.16398,0.37758 c -0.0689,0.0427 -0.13367,0.0813 -0.19015,0.11576"
         id="path27109"
         style="stroke-width:0.352778" />
      <path
         fill-rule="nonzero"
         fill="#283a86"
         fill-opacity="1"
         d="m 454.83578,378.00474 c -0.21223,0.0951 -0.42859,0.14332 -0.66146,0.14332 -0.5981,0 -0.9743,-0.39412 -0.9743,-1.00873 0,-0.63665 0.43272,-1.11621 1.00873,-1.11621 0.49749,0 0.84335,0.37621 0.84335,0.92053 v 0.22187 h -1.33254 c 0.008,0.16812 0.0208,0.2384 0.0689,0.3197 0.0868,0.14745 0.26046,0.24253 0.45061,0.24253 0.0772,0 0.15575,-0.008 0.23703,-0.0345 0.12128,-0.0345 0.19981,-0.0744 0.38587,-0.19017 l 0.19014,0.39274 c -0.0951,0.0524 -0.1681,0.0868 -0.21632,0.10886 m -0.66146,-1.59301 c -0.23015,0 -0.38587,0.15572 -0.42859,0.42857 h 0.78687 c -0.0123,-0.3073 -0.11715,-0.42857 -0.35828,-0.42857"
         id="path27111"
         style="stroke-width:0.352778" />
      <path
         fill-rule="nonzero"
         fill="#283a86"
         fill-opacity="1"
         d="m 456.66719,376.69285 c -0.0565,-0.0427 -0.10061,-0.0606 -0.15572,-0.0606 -0.0827,0 -0.17363,0.0565 -0.2522,0.15159 -0.0951,0.11713 -0.13779,0.23426 -0.13779,0.38585 v 0.92191 h -0.51541 v -2.01332 h 0.44651 l 0.0219,0.44236 c 0.19431,-0.34176 0.31969,-0.47267 0.47541,-0.47267 0.10886,0 0.19843,0.0482 0.28113,0.14331 z m 0,0"
         id="path27113"
         style="stroke-width:0.352778" />
      <path
         fill-rule="nonzero"
         fill="#283a86"
         fill-opacity="1"
         d="m 458.85688,378.11774 h -0.10887 c -0.25908,0 -0.34177,-0.0441 -0.43271,-0.22187 -0.19015,0.17364 -0.35828,0.24667 -0.56222,0.24667 -0.34178,0 -0.58431,-0.22462 -0.58431,-0.54432 0,-0.0689 0.0124,-0.13918 0.0346,-0.20395 0.0689,-0.18603 0.19018,-0.28112 0.48507,-0.36794 l 0.57051,-0.16398 v -0.1695 c 0,-0.21635 -0.0772,-0.31557 -0.24528,-0.31557 -0.15709,0 -0.28251,0.0827 -0.28251,0.1819 l 0.0138,0.0524 -0.49332,0.10749 c -0.0219,-0.0606 -0.0261,-0.0827 -0.0261,-0.1378 0,-0.35554 0.31143,-0.55949 0.85577,-0.55949 0.48094,0 0.69726,0.19982 0.69726,0.64079 v 0.8406 c 0,0.18191 0.0219,0.21085 0.16126,0.22462 z m -0.59806,-0.92191 -0.51403,0.16812 c -0.0303,0.0786 -0.0386,0.11714 -0.0386,0.1695 0,0.12954 0.0772,0.20671 0.20669,0.20671 0.0648,0 0.14333,-0.0207 0.21223,-0.0606 0.0346,-0.0165 0.0606,-0.0345 0.13367,-0.091 z m 0,0"
         id="path27115"
         style="stroke-width:0.352778" />
      <path
         fill-rule="nonzero"
         fill="#283a86"
         fill-opacity="1"
         d="m 460.80404,378.09156 v -0.27286 c -0.073,0.11714 -0.10749,0.15572 -0.20257,0.21636 -0.11712,0.073 -0.24253,0.113 -0.37757,0.113 -0.47544,0 -0.82684,-0.42444 -0.82684,-1.00459 0,-0.62287 0.42859,-1.12586 0.96188,-1.12586 0.0565,0 0.11575,0.004 0.17639,0.0221 0.10887,0.022 0.15709,0.0427 0.26871,0.12127 v -1.22508 h 0.51541 v 3.15571 z m 0,-1.20303 c 0,-0.113 -0.0123,-0.21773 -0.0261,-0.26045 -0.0346,-0.10748 -0.17639,-0.18603 -0.33623,-0.18603 -0.28663,0 -0.49886,0.28112 -0.49886,0.66283 0,0.36243 0.16951,0.61874 0.41617,0.61874 0.15984,0 0.31972,-0.10886 0.4451,-0.30317 z m 0,0"
         id="path27117"
         style="stroke-width:0.352778" />
      <path
         fill-rule="nonzero"
         fill="#283a86"
         fill-opacity="1"
         d="m 462.34469,375.70617 c -0.15984,0 -0.29351,-0.15571 -0.29351,-0.35002 0,-0.19568 0.13367,-0.3514 0.29351,-0.3514 0.16122,0 0.29076,0.15572 0.29076,0.3514 0,0.19431 -0.12954,0.35002 -0.29076,0.35002 m -0.25908,0.37207 h 0.51541 v 2.01332 h -0.51541 z m 0,0"
         id="path27119"
         style="stroke-width:0.352778" />
      <path
         fill-rule="nonzero"
         fill="#283a86"
         fill-opacity="1"
         d="m 464.8293,378.00474 c -0.21223,0.0951 -0.42859,0.14332 -0.66145,0.14332 -0.59807,0 -0.97427,-0.39412 -0.97427,-1.00873 0,-0.63665 0.43268,-1.11621 1.0087,-1.11621 0.49748,0 0.84338,0.37621 0.84338,0.92053 v 0.22187 h -1.33258 c 0.008,0.16812 0.0219,0.2384 0.0689,0.3197 0.0868,0.14745 0.26045,0.24253 0.45064,0.24253 0.0772,0 0.15571,-0.008 0.2384,-0.0345 0.12125,-0.0345 0.19844,-0.0744 0.38446,-0.19017 l 0.19018,0.39274 c -0.0951,0.0524 -0.16813,0.0868 -0.21636,0.10886 m -0.66145,-1.59301 c -0.23016,0 -0.38587,0.15572 -0.42859,0.42857 h 0.78687 c -0.0124,-0.3073 -0.11575,-0.42857 -0.35828,-0.42857"
         id="path27121"
         style="stroke-width:0.352778" />
      <path
         fill-rule="nonzero"
         fill="#283a86"
         fill-opacity="1"
         d="m 465.5955,374.93585 h 0.51538 v 3.15571 h -0.51538 z m 0,0"
         id="path27123"
         style="stroke-width:0.352778" />
      <path
         fill-rule="nonzero"
         fill="#46ba3a"
         fill-opacity="1"
         d="m 433.4114,378.03644 h -0.33211 v -5.18005 h 0.33211 z m 0,0"
         id="path27125"
         style="stroke-width:0.352778" />
      <path
         fill-rule="nonzero"
         fill="#46ba3a"
         fill-opacity="1"
         d="m 466.91013,363.46644 h -0.0219 c -0.18327,0.31832 -0.58427,0.81993 -0.98253,0.81993 -0.23978,0 -0.36106,-0.24667 -0.36106,-0.45888 0,-0.58705 0.50849,-1.52687 1.27882,-1.52687 0.0979,0 0.19431,0.0152 0.28663,0.0427 h 0.34452 l -0.3762,1.90031 h -0.34452 z m 0.14608,-0.85301 c -0.0717,-0.04 -0.18605,-0.0648 -0.26458,-0.0648 -0.49474,0 -0.88194,0.69866 -0.88194,1.21129 0,0.0965 0.04,0.19293 0.14742,0.19293 0.25771,0 0.75932,-0.68764 0.91366,-0.89573 z m 0,0"
         id="path27127"
         style="stroke-width:0.352778" />
      <path
         fill-rule="nonzero"
         fill="#46ba3a"
         fill-opacity="1"
         d="m 459.48941,365.34333 -0.0441,-0.0868 -0.1075,-0.0207 -0.0208,-0.34451 h 0.94534 l -0.0208,0.34451 -0.12954,0.0207 0.25908,0.74276 0.44373,-1.10794 h 0.34449 l 0.41892,1.10794 0.2577,-0.74276 -0.12816,-0.0207 -0.0219,-0.34451 h 0.66696 l -0.0219,0.34451 -0.10746,0.0207 -0.0896,0.1943 -0.48648,1.4056 h -0.34861 l -0.44373,-1.18787 -0.47681,1.18787 h -0.34453 z m 0,0"
         id="path27129"
         style="stroke-width:0.352778" />
      <path
         fill-rule="nonzero"
         fill="#283a86"
         fill-opacity="1"
         d="m 466.52567,366.44162 c -0.17501,-0.10335 -0.28938,-0.29352 -0.28938,-0.5016 0,-0.32935 0.18327,-0.70556 0.401,-0.94534 0.24804,-0.27698 0.60632,-0.4451 0.97564,-0.4451 0.18602,0 0.38725,0.04 0.54847,0.13229 0.17501,0.10473 0.28938,0.29765 0.28938,0.50574 0,0.3197 -0.18189,0.71244 -0.39688,0.94671 -0.25079,0.27147 -0.60219,0.44373 -0.97839,0.44373 -0.1833,0 -0.38724,-0.0386 -0.54984,-0.13643 m 0.4451,-0.627 c 0,0.16812 0.0427,0.4203 0.25492,0.4203 0.35831,0 0.49061,-0.6463 0.49061,-0.92191 0,-0.16812 -0.0386,-0.41892 -0.25496,-0.41892 -0.35828,0 -0.49057,0.64078 -0.49057,0.92053"
         id="path27131"
         style="stroke-width:0.352778" />
      <path
         fill-rule="nonzero"
         fill="#46ba3a"
         fill-opacity="1"
         d="m 469.60419,364.9437 h 0.0219 c 0.14333,-0.23289 0.36932,-0.39826 0.65595,-0.39826 0.23291,0 0.46578,0.15434 0.48782,0.39826 h 0.0219 c 0.12403,-0.226 0.37207,-0.39826 0.6339,-0.39826 0.20807,0 0.53055,0.11438 0.53055,0.53468 v 1.40836 h -0.34453 v -1.35462 c 0,-0.22186 -0.13642,-0.30179 -0.25491,-0.30179 -0.24667,0 -0.42581,0.2012 -0.56501,0.38448 v 1.27193 h -0.34449 v -1.35462 c 0,-0.22186 -0.13646,-0.30179 -0.25495,-0.30179 -0.24804,0 -0.42581,0.2012 -0.56639,0.38448 v 1.27193 h -0.34449 v -1.90032 h 0.34449 z m 0,0"
         id="path27133"
         style="stroke-width:0.352778" />
      <path
         fill-rule="nonzero"
         fill="#283a86"
         fill-opacity="1"
         d="m 469.83847,370.39522 -0.17227,-0.022 -0.0208,-0.17226 c -0.24116,0 -0.36932,0.10473 -0.5195,0.25907 v 0.86679 l 0.0208,0.32246 0.19428,0.0221 0.0208,0.17225 h -0.77445 l 0.0219,-0.17225 0.15021,-0.0221 0.0219,-0.32246 v -0.88884 l -0.0219,-0.30179 -0.15021,-0.0207 -0.0219,-0.17225 0.53883,-0.022 v 0.28663 l -0.0219,0.0909 h 0.0219 c 0.12125,-0.23014 0.35828,-0.39826 0.62012,-0.39826 0.0427,0 0.0785,0.003 0.11437,0.0207 z m 0,0"
         id="path27135"
         style="stroke-width:0.352778" />
      <path
         fill-rule="nonzero"
         fill="#283a86"
         fill-opacity="1"
         d="m 468.11867,372.61937 h -0.23011 l 0.0427,-0.17226 h 0.22603 l 0.0689,-0.34726 0.36516,-0.0965 -0.0896,0.44372 h 0.44513 l -0.0441,0.17226 h -0.43684 l -0.2329,1.1796 c -0.0109,0.0634 -0.0247,0.12815 -0.0247,0.19292 0,0.11852 0.0854,0.18328 0.19706,0.18328 0.0827,0 0.15022,-0.022 0.22186,-0.0648 l -0.0427,0.21497 c -0.0937,0.0427 -0.18602,0.0648 -0.28663,0.0648 -0.25492,0 -0.42993,-0.16812 -0.42993,-0.42306 0,-0.0717 0.018,-0.15021 0.0317,-0.21911 z m 0,0"
         id="path27137"
         style="stroke-width:0.352778" />
      <path
         fill-rule="nonzero"
         fill="#46ba3a"
         fill-opacity="1"
         d="m 471.67676,370.97812 h 0.68767 l -0.16814,0.82131 -0.20394,0.82132 h 0.0427 c 0.1433,-0.33073 0.5085,-0.86403 0.90675,-0.86403 0.24391,0 0.38721,0.17914 0.38721,0.40514 0,0.0923 -0.0247,0.18603 -0.0427,0.27974 l -0.26183,1.30087 h -0.68763 l 0.23978,-1.21956 0.018,-0.0965 c 0,-0.0207 -0.007,-0.0579 -0.04,-0.0579 -0.12541,0 -0.54846,0.62838 -0.61598,0.76756 l -0.12263,0.60634 h -0.69179 z m 0,0"
         id="path27139"
         style="stroke-width:0.352778" />
      <path
         fill-rule="nonzero"
         fill="#283a86"
         fill-opacity="1"
         d="m 478.8646,370.35112 h 0.0427 c 0.12542,-0.25356 0.33765,-0.4079 0.62703,-0.4079 0.16535,0 0.30177,0.0358 0.42305,0.15434 0.1433,0.13918 0.16122,0.30041 0.16122,0.49471 v 0.81994 l 0.0219,0.15158 0.15022,0.0207 0.0219,0.3445 h -1.07901 l 0.0219,-0.3445 0.15021,-0.0207 0.0208,-0.15158 v -0.75517 c 0,-0.0579 0.004,-0.13367 -0.0317,-0.17914 -0.0289,-0.04 -0.0785,-0.062 -0.1295,-0.062 -0.15434,0 -0.27976,0.15434 -0.35832,0.27285 v 0.72347 l 0.0219,0.15158 0.15022,0.0207 0.0219,0.3445 h -1.07901 l 0.0208,-0.3445 0.15021,-0.0207 0.0219,-0.15158 v -0.93156 l -0.0219,-0.12953 -0.15021,-0.0207 -0.0208,-0.34451 0.8847,-0.0207 z m 0,0"
         id="path27141"
         style="stroke-width:0.352778" />
      <path
         fill-rule="nonzero"
         fill="#283a86"
         fill-opacity="1"
         d="m 469.62486,379.46133 c 0.2329,0.0827 0.47681,0.15434 0.72348,0.15434 0.10749,0 0.29767,-0.011 0.29767,-0.1571 0,-0.27285 -1.0184,-0.23013 -1.0184,-0.87919 0,-0.23288 0.14058,-0.60496 0.91779,-0.60496 0.22324,0 0.4451,0.0248 0.66283,0.0744 v 0.44097 c -0.16397,-0.0648 -0.39412,-0.12816 -0.57326,-0.12816 -0.10337,0 -0.31556,0.011 -0.31556,0.1571 0,0.25769 1.06108,0.20808 1.06108,0.83233 0,0.28663 -0.21085,0.65182 -0.93846,0.65182 -0.27283,0 -0.55259,-0.0317 -0.81717,-0.1006 z m 0,0"
         id="path27143"
         style="stroke-width:0.352778" />
      <path
         fill-rule="nonzero"
         fill="#283a86"
         fill-opacity="1"
         d="m 476.51094,374.51968 h 0.69176 v 0.81994 l -0.0441,0.36655 h 0.0441 c 0.10749,-0.25493 0.34036,-0.40927 0.61599,-0.40927 0.5636,0 0.75653,0.47955 0.75653,0.96738 0,0.52365 -0.22599,1.06109 -0.82818,1.06109 -0.24391,0 -0.35832,-0.0717 -0.54434,-0.21498 h -0.0441 l -0.0854,0.17226 h -0.56222 z m 0.69176,2.21038 c 0.0675,0.10748 0.16814,0.18741 0.29764,0.18741 0.26875,0 0.3404,-0.39412 0.3404,-0.59945 0,-0.19292 -0.0538,-0.50436 -0.30868,-0.50436 -0.16122,0 -0.26459,0.14332 -0.32936,0.27147 z m 0,0"
         id="path27145"
         style="stroke-width:0.352778" />
      <path
         fill-rule="nonzero"
         fill="#46ba3a"
         fill-opacity="1"
         d="m 483.6409,374.1297 0.34173,0.022 -0.0152,0.17914 c 0.0496,0.0289 0.12125,0.0606 0.17639,0.0606 0.21082,0 0.24254,-0.2577 0.27146,-0.41204 l 0.26871,-1.4056 0.018,-0.1502 -0.15022,-0.0207 0.0496,-0.34451 0.91087,-0.0221 -0.12816,0.53743 -0.21911,1.11208 c -0.0537,0.27974 -0.13917,0.51952 -0.34453,0.73174 -0.20806,0.21497 -0.4809,0.31832 -0.7772,0.31832 -0.16535,0 -0.36932,-0.04 -0.52366,-0.10748 z m 1.32704,-2.93522 h 0.6918 l -0.11166,0.55948 h -0.69176 z m 0,0"
         id="path27147"
         style="stroke-width:0.352778" />
      <path
         fill-rule="nonzero"
         fill="#283a86"
         fill-opacity="1"
         d="m 475.19353,382.07685 c 0.33761,0 0.80751,-0.0289 0.80751,0.4327 0,0.45888 -0.53055,0.6022 -0.89984,0.6022 -0.24391,0 -0.87093,-0.0565 -0.87093,-0.40101 0,-0.20808 0.2081,-0.33624 0.37895,-0.40514 -0.10749,-0.0469 -0.19706,-0.12954 -0.19706,-0.25494 0,-0.17501 0.19706,-0.26872 0.33352,-0.34038 -0.24395,-0.0965 -0.38725,-0.34726 -0.38725,-0.6022 0,-0.17501 0.0648,-0.36242 0.19018,-0.48782 0.1433,-0.14332 0.34036,-0.18604 0.5388,-0.18604 0.11712,0 0.23978,0.0221 0.35003,0.0717 l 0.66696,-0.0496 -0.10749,0.2577 -0.3762,-0.0648 c 0.10749,0.1254 0.16538,0.29076 0.16538,0.45613 0,0.16812 -0.0799,0.35829 -0.19706,0.47956 -0.14471,0.14331 -0.33073,0.18603 -0.52779,0.18603 -0.0648,0 -0.12817,-0.003 -0.19019,-0.0207 -0.0634,0.0427 -0.14605,0.12126 -0.14605,0.20808 0,0.12954 0.16397,0.11851 0.25354,0.11851 z m -0.44373,0.25769 c -0.10061,0.0758 -0.17639,0.18603 -0.17639,0.31557 0,0.24667 0.32382,0.29077 0.50987,0.29077 0.23287,0 0.58427,-0.0896 0.58427,-0.38448 0,-0.0827 -0.051,-0.15434 -0.12537,-0.19017 -0.0799,-0.0358 -0.20119,-0.0317 -0.28388,-0.0317 z m -0.0469,-1.22646 c 0,0.24116 0.0896,0.51263 0.37621,0.51263 0.11437,0 0.20806,-0.0565 0.26871,-0.1502 0.0758,-0.10749 0.0937,-0.24392 0.0937,-0.36932 0,-0.2508 -0.0854,-0.51676 -0.38308,-0.51676 -0.277,0 -0.35553,0.29766 -0.35553,0.52365"
         id="path27149"
         style="stroke-width:0.352778" />
      <path
         fill-rule="nonzero"
         fill="#46ba3a"
         fill-opacity="1"
         d="m 477.90688,379.66941 0.17226,0.022 -0.0219,0.17226 c 0.11162,0.0827 0.24666,0.13918 0.38721,0.13918 0.17226,0 0.36932,-0.0896 0.36932,-0.28939 0,-0.27974 -0.64904,-0.62012 -0.64904,-1.00046 0,-0.32659 0.29076,-0.52365 0.64904,-0.52365 0.21499,0 0.36241,0.0427 0.55535,0.12953 l -0.0965,0.35416 -0.17227,-0.0207 0.0208,-0.17226 c -0.0882,-0.0717 -0.21774,-0.11851 -0.33211,-0.11851 -0.14746,0 -0.3018,0.10335 -0.3018,0.26183 0,0.30868 0.64908,0.56913 0.64908,1.0349 0,0.30868 -0.27288,0.51677 -0.68488,0.51677 -0.22187,0 -0.44098,-0.0537 -0.64079,-0.15021 z m 0,0"
         id="path27151"
         style="stroke-width:0.352778" />
      <path
         fill-rule="nonzero"
         fill="#46ba3a"
         fill-opacity="1"
         d="m 473.39104,387.53525 c -0.34036,0.12127 -0.67384,0.21498 -1.01698,0.21498 -0.3955,0 -0.81855,-0.19706 -0.81855,-0.64906 0,-0.56224 0.48782,-1.37941 1.38356,-1.37941 0.24391,0 0.52779,0.13229 0.52779,0.43408 0,0.56224 -0.72761,0.90675 -1.21959,0.89159 0.004,0.20808 0.16263,0.29352 0.35278,0.29352 0.26045,0 0.65457,-0.1571 0.88885,-0.2825 z m -0.54846,-1.2361 c 0,-0.0937 -0.0537,-0.14745 -0.1433,-0.14745 -0.22461,0 -0.37207,0.32246 -0.40379,0.5085 0.32523,0.008 0.54709,-0.10749 0.54709,-0.36105"
         id="path27153"
         style="stroke-width:0.352778" />
      <path
         fill-rule="nonzero"
         fill="#46ba3a"
         fill-opacity="1"
         d="m 464.94367,369.10813 0.007,-0.008 c 0.21085,0.18742 0.5347,0.34038 0.82409,0.34038 0.39825,0 0.41617,-0.30041 0.48782,-0.61599 l 0.16534,-0.71657 h -0.0219 c -0.18602,0.32246 -0.57326,0.84198 -0.98252,0.84198 -0.2577,0 -0.3762,-0.20395 -0.3762,-0.44098 0,-0.63389 0.55947,-1.54478 1.26227,-1.54478 0.10337,0 0.18602,0.0152 0.28251,0.0358 l 0.0332,0.007 0.3762,-0.0427 -0.1433,0.6022 -0.19706,1.02113 c -0.0538,0.27285 -0.0716,0.5457 -0.27562,0.74966 -0.22324,0.22186 -0.49608,0.30454 -0.80339,0.30454 -0.18326,0 -0.35553,-0.0289 -0.52366,-0.0965 z m 1.63435,-1.86449 c -0.11849,-0.0469 -0.25491,-0.0648 -0.38308,-0.0648 -0.3514,0 -0.48094,0.22876 -0.59944,0.51952 -0.0924,0.22325 -0.17917,0.50161 -0.17917,0.74277 0,0.10748 0.0358,0.22875 0.16538,0.22875 0.19706,0 0.41204,-0.27285 0.52641,-0.41617 l 0.37621,-0.5333 z m 0,0"
         id="path27155"
         style="stroke-width:0.352778" />
      <path
         fill-rule="nonzero"
         fill="#283a86"
         fill-opacity="1"
         d="m 484.14114,379.12233 c 0.004,0.15021 0.018,0.31833 0.0827,0.45889 0.0965,0.19981 0.30868,0.34037 0.53054,0.34037 0.19019,0 0.40104,-0.0537 0.56639,-0.1502 v 0.25769 c -0.19015,0.0785 -0.39137,0.12816 -0.59944,0.12816 -0.59119,0 -0.94534,-0.44373 -0.94534,-1.01424 0,-0.5085 0.2963,-0.97152 0.8461,-0.97152 0.23153,0 0.42171,0.0937 0.55122,0.28663 0.13229,0.19431 0.14746,0.39826 0.14746,0.62426 v 0.04 z m 0.81304,-0.17225 c 0,-0.2825 -0.0346,-0.60634 -0.36519,-0.60634 -0.30456,0 -0.41893,0.35553 -0.42718,0.60634 z m 0,0"
         id="path27157"
         style="stroke-width:0.352778" />
      <path
         fill-rule="nonzero"
         fill="#283a86"
         fill-opacity="1"
         d="m 476.72176,368.37639 -0.48507,2.43775 -0.37895,0.0441 0.14054,-0.61047 0.37208,-1.87138 h -0.24529 l 0.0427,-0.17363 h 0.23841 l 0.0372,-0.12265 c 0.17639,-0.60082 0.5195,-0.79237 0.86265,-0.79237 0.12954,0 0.26042,0.0221 0.38033,0.0661 l -0.10199,0.37896 -0.17364,-0.022 0.0219,-0.16261 c -0.0578,-0.0537 -0.13779,-0.0868 -0.21357,-0.0868 -0.32522,0 -0.40379,0.42995 -0.45064,0.67248 l -0.0152,0.0689 h 0.54568 l -0.0439,0.17363 z m 0,0"
         id="path27159"
         style="stroke-width:0.352778" />
    </g>
  </g>
</svg>
